# xmcd CD database file
#
# Track frame offsets:
#	150
#	19301
#	38714
#	59040
#	82166
#	105847
#	123267
#	142854
#	157319
#	186210
#
# Disc length: 2723 seconds
#
# Revision: 0
# Processed by: cddbd v1.5.1PL0 Copyright (c) Steve Scherf et al.
# Submitted via: CDex 1.51
#
DISCID=860aa10a
DTITLE=Conrad Story Blues Band - Poutine
DYEAR=2004
DGENRE=Blues
TTITLE0=That Lovin Thing
TTITLE1=Im Hearin Every Word You Say
TTITLE2=Crossin The River
TTITLE3=La Belle Poutine
TTITLE4=Daddy Didnt Give You Much
TTITLE5=Sure Do Wanta Fool Around With You
TTITLE6=Cant Get Over Blues
TTITLE7=Changin My Ways
TTITLE8=Heal My Misery
TTITLE9=Aint Looking For Love
EXTD=YEAR: 2004
EXTT0=
EXTT1=
EXTT2=
EXTT3=
EXTT4=
EXTT5=
EXTT6=
EXTT7=
EXTT8=
EXTT9=
PLAYORDER=
